<svg xmlns="http://www.w3.org/2000/svg" xmlns:xlink="http://www.w3.org/1999/xlink" version="1.1" x="0px" y="0px" viewBox="0 0 100 125" enable-background="new 0 0 100 100" xml:space="preserve"><g><path fill="#000000" d="M49,5C24.187,5,4,25.187,4,50c0,24.813,20.187,45,45,45c24.813,0,45-20.187,45-45C94,25.187,73.813,5,49,5z    M49,92.578c-23.477,0-42.577-19.1-42.577-42.577c0-23.477,19.1-42.577,42.577-42.577c23.477,0,42.577,19.1,42.577,42.577   C91.577,73.477,72.477,92.578,49,92.578z"/><path fill="#000000" d="M67.473,70.666c-3.323-1.356-7.05-1.899-9.227-5.053c-0.874-1.266-0.662-2.936-0.662-4.389   c0-1.265,0-2.53,0-3.795c0-0.104,0-0.207,0-0.311c0,0.603,0.426-0.241,0.52-0.362c0.545-0.699,0.98-1.464,1.378-2.254   c0.81-1.609,1.365-3.346,1.878-5.073c2.585-0.169,4.644-6.343,2.38-8.128c1.574-5.769,2.98-13.477-0.457-18.768   c-1.358-2.09-3.608-3.084-6.047-3.115c-0.552-0.007-1.023-0.907-1.334-1.302c-0.487-0.617-1.087-0.996-1.815-1.276   c-2.672-1.029-6.319-0.586-9.067-0.076c-2.497,0.464-4.838,1.562-6.737,3.249c-4.043,3.591-4.84,9.514-4.693,14.615   c0.065,2.251,0.356,4.495,0.738,6.713c-0.888,0.854-0.798,2.81-0.642,3.785c0.248,1.553,1.09,3.603,2.7,4.174   c0.605,1.763,1.282,3.498,2.148,5.151c0.329,0.628,0.71,1.226,1.121,1.802c0.157,0.221,0.329,0.432,0.498,0.643   c0.288,0.361,0.371,0.549,0.358,0.18c0.076,2.229,0.179,4.481,0.048,6.709c-0.26,4.427-6.28,5.475-9.47,6.662   c-3.531,1.314-7.016,3.224-9.513,6.1c-0.637,0.734,0.429,1.809,1.071,1.071c2.808-3.234,6.833-5.1,10.834-6.403   c3.571-1.163,7.577-2.655,8.515-6.762c0.51-2.232,0.108-4.897,0.036-7.169c-0.032-1.011-1.104-1.802-1.633-2.631   c-1.21-1.893-1.983-4.054-2.695-6.171c-0.118-0.35-0.374-0.516-0.73-0.556c-0.833-0.093-1.422-1.593-1.638-2.234   c-0.1-0.297-0.576-3.091,0.022-3.251c0.425-0.114,0.601-0.528,0.529-0.931c-1.009-5.619-1.611-12.122,1.119-17.376   c2.721-5.237,8.511-6.393,13.938-6.244c1.088,0.03,2.312,0.099,3.268,0.677c0.492,0.297,0.802,0.896,1.158,1.33   c0.629,0.769,1.241,1.028,2.211,1.04c1.33,0.017,2.585,0.515,3.57,1.399c2.145,1.926,2.53,5.319,2.608,8.016   c0.109,3.754-0.628,7.516-1.637,11.114c-0.114,0.407,0.136,0.81,0.529,0.931c0.944,0.293,0.3,2.791,0.154,3.329   c-0.076,0.279-1.163,2.42-1.601,2.194c-0.437-0.226-0.97-0.034-1.112,0.453c-0.614,2.097-1.27,4.184-2.308,6.116   c-0.588,1.093-1.713,1.844-1.713,3.115c0,2.713-0.52,5.967,0.694,8.475c1.309,2.705,4.675,4.207,7.355,5.011   c4.134,1.239,8.361,3.216,11.237,6.528c0.641,0.739,1.708-0.337,1.071-1.071C74.039,73.797,70.802,72.025,67.473,70.666z"/></g></svg>